<svg width="25" height="26" viewBox="0 0 25 26" fill="none" xmlns="http://www.w3.org/2000/svg">
<circle cx="12.5" cy="13.5" r="12.5" fill="#2A2A2A"/>
<path d="M11.1698 4.99972C11.3192 4.99922 11.4668 5.03219 11.6018 5.09622C11.7368 5.16025 11.8557 5.2537 11.9498 5.36973L16.7798 11.3697C16.9269 11.5487 17.0073 11.7731 17.0073 12.0047C17.0073 12.2363 16.9269 12.4608 16.7798 12.6397L11.7798 18.6397C11.6101 18.8439 11.3662 18.9724 11.1018 18.9967C10.8373 19.0211 10.5741 18.9395 10.3698 18.7697C10.1656 18.6 10.0372 18.3561 10.0128 18.0916C9.98844 17.8272 10.0701 17.5639 10.2398 17.3597L14.7098 11.9997L10.3898 6.63972C10.2676 6.49294 10.1899 6.3142 10.166 6.12465C10.1421 5.9351 10.173 5.74268 10.2551 5.57015C10.3371 5.39762 10.4669 5.25221 10.629 5.15112C10.7911 5.05003 10.9788 4.99749 11.1698 4.99972Z" fill="white"/>
</svg>
