<svg width="34" height="33" viewBox="0 0 34 33" fill="none" xmlns="http://www.w3.org/2000/svg">
<g filter="url(#filter0_d_442_15887)">
<path d="M7.375 4.5V1.125H9.625V4.5H13V6.75H9.625V10.125H7.375V6.75H4V4.5H7.375ZM10.75 11.25V7.875H14.125V4.5H22L24.0588 6.75H27.625C28.8625 6.75 29.875 7.7625 29.875 9V22.5C29.875 23.7375 28.8625 24.75 27.625 24.75H9.625C8.3875 24.75 7.375 23.7375 7.375 22.5V11.25H10.75ZM18.625 21.375C21.73 21.375 24.25 18.855 24.25 15.75C24.25 12.645 21.73 10.125 18.625 10.125C15.52 10.125 13 12.645 13 15.75C13 18.855 15.52 21.375 18.625 21.375ZM15.025 15.75C15.025 17.7412 16.6337 19.35 18.625 19.35C20.6162 19.35 22.225 17.7412 22.225 15.75C22.225 13.7587 20.6162 12.15 18.625 12.15C16.6337 12.15 15.025 13.7587 15.025 15.75Z" fill="#2A2A2A"/>
</g>
<defs>
<filter id="filter0_d_442_15887" x="0" y="0" width="35" height="35" filterUnits="userSpaceOnUse" color-interpolation-filters="sRGB">
<feFlood flood-opacity="0" result="BackgroundImageFix"/>
<feColorMatrix in="SourceAlpha" type="matrix" values="0 0 0 0 0 0 0 0 0 0 0 0 0 0 0 0 0 0 127 0" result="hardAlpha"/>
<feOffset dy="4"/>
<feGaussianBlur stdDeviation="2"/>
<feComposite in2="hardAlpha" operator="out"/>
<feColorMatrix type="matrix" values="0 0 0 0 0 0 0 0 0 0 0 0 0 0 0 0 0 0 0.25 0"/>
<feBlend mode="normal" in2="BackgroundImageFix" result="effect1_dropShadow_442_15887"/>
<feBlend mode="normal" in="SourceGraphic" in2="effect1_dropShadow_442_15887" result="shape"/>
</filter>
</defs>
</svg>
